<?xml version="1.0" encoding="UTF-8"?>
<svg width="10px" height="10px" viewBox="0 0 10 10" version="1.1" xmlns="http://www.w3.org/2000/svg" xmlns:xlink="http://www.w3.org/1999/xlink">
    <!-- Generator: Sketch 48.1 (47250) - http://www.bohemiancoding.com/sketch -->
    <title>删除</title>
    <desc>Created with Sketch.</desc>
    <defs></defs>
    <g id="管理员-权限管理-角色列表" stroke="none" stroke-width="1" fill="none" fill-rule="evenodd" transform="translate(-1186.000000, -234.000000)">
        <g id="Group-3" transform="translate(1186.000000, 234.000000)" fill="#2383E2" fill-rule="nonzero">
            <g id="删除">
                <path d="M8.09102878,1.43671608 C8.31671995,1.43671608 8.50291518,1.47472444 8.64961444,1.55074116 C8.79631371,1.62675789 8.91292082,1.72177879 8.99943577,1.83580388 C9.08595072,1.94982896 9.14613504,2.07335614 9.17998872,2.2063854 C9.21384239,2.33941467 9.23076923,2.46294185 9.23076923,2.57696693 C9.23076923,2.63017864 9.22888847,2.67198784 9.22512695,2.70239453 C9.22136543,2.73280122 9.21948467,2.75940707 9.21948467,2.78221209 L9.21948467,2.85062714 L8.47470378,2.85062714 L8.47470378,8.83694413 C8.47470378,8.98897758 8.44461162,9.13530977 8.38442731,9.27594071 C8.32424299,9.41657165 8.23772804,9.54009882 8.12488245,9.64652223 C8.01203686,9.75294565 7.8747414,9.83846446 7.71299605,9.90307868 C7.55125071,9.96769289 7.36505548,10 7.15441038,10 L2.12149708,10 C1.92589806,10 1.7415836,9.96959331 1.5685537,9.90877993 C1.39552379,9.84796655 1.24694377,9.76244774 1.12281362,9.65222349 C0.998683468,9.54199924 0.900883957,9.40896997 0.829415084,9.25313569 C0.75794621,9.09730141 0.722211774,8.92056252 0.722211774,8.72291904 L0.722211774,2.85062714 L0.0225691179,2.85062714 C0.0150460786,2.84302547 0.011284559,2.82402128 0.011284559,2.7936146 C0.00376151965,2.75560623 0,2.63778031 0,2.44013683 C0,2.34131509 0.0225691179,2.23109084 0.0677073538,2.10946408 C0.11284559,1.98783732 0.180552943,1.87571266 0.270829415,1.77309008 C0.361105887,1.6704675 0.477712996,1.58494869 0.620650743,1.51653364 C0.76358849,1.44811859 0.932856874,1.41391106 1.1284559,1.41391106 L2.13278164,1.41391106 L2.13278164,0.718358039 C2.13278164,0.520714557 2.200489,0.351577347 2.33590371,0.210946408 C2.47131841,0.0703154694 2.63682528,0 2.8324243,0 L6.36449125,0 C6.62779763,0 6.81023133,0.0703154694 6.91179236,0.210946408 C7.01335339,0.351577347 7.06413391,0.520714557 7.06413391,0.718358039 L7.06413391,1.42531357 C7.22211774,1.43291524 7.39138612,1.43671608 7.57193906,1.43671608 L8.09102878,1.43671608 Z M2.8324243,1.43671608 L6.36449125,1.43671608 L6.36449125,0.718358039 L2.8324243,0.718358039 L2.8324243,1.43671608 Z M2.48260297,8.65450399 C2.72334023,8.65450399 2.84370886,8.49866971 2.84370886,8.18700114 L2.84370886,2.89623717 L2.1440662,2.89623717 L2.1440662,8.18700114 C2.1440662,8.34663626 2.16851608,8.46446218 2.21741584,8.54047891 C2.26631559,8.61649563 2.3547113,8.65450399 2.48260297,8.65450399 Z M4.61538462,8.64310148 C4.74327628,8.64310148 4.82979124,8.60699354 4.87492947,8.53477765 C4.92006771,8.46256176 4.94263683,8.34663626 4.94263683,8.18700114 L4.94263683,2.89623717 L4.24299417,2.89623717 L4.24299417,8.18700114 C4.24299417,8.49106803 4.36712432,8.64310148 4.61538462,8.64310148 Z M6.7368817,8.62029647 C6.87229641,8.62029647 6.96257288,8.58418852 7.00771112,8.51197263 C7.05284935,8.43975675 7.07541847,8.32383124 7.07541847,8.16419612 L7.07541847,2.89623717 L6.36449125,2.89623717 L6.36449125,8.16419612 C6.36449125,8.46826302 6.4886214,8.62029647 6.7368817,8.62029647 Z" id="Shape"></path>
            </g>
        </g>
    </g>
</svg>