<?xml version="1.0" encoding="UTF-8"?>
<svg width="40px" height="40px" viewBox="0 0 40 40" version="1.1" xmlns="http://www.w3.org/2000/svg" xmlns:xlink="http://www.w3.org/1999/xlink">
    <!-- Generator: Sketch 47.1 (45422) - http://www.bohemiancoding.com/sketch -->
    <title>ic_denglu_yanzhengma</title>
    <desc>Created with Sketch.</desc>
    <defs></defs>
    <g id="Page-1" stroke="none" stroke-width="1" fill="none" fill-rule="evenodd">
        <g id="1.0-登录" transform="translate(-780.000000, -854.000000)">
            <g id="Page-1-Copy" transform="translate(780.000000, 854.000000)">
                <path d="M20.8976384,23.1006136 L18.8519026,25.1463083 L19.1426517,24.8554672 C19.1426517,24.8554672 17.6432926,23.356572 17.1437146,23.8559954 C16.6465839,24.3535943 18.1288542,25.840278 18.1433883,25.8548315 L16.80613,27.1920398 L17.1437772,26.8542859 C17.1437772,26.8542859 15.644418,25.3553907 15.1448401,25.8548141 C14.6476124,26.3518879 16.1305582,27.8396711 16.1445221,27.8536584 L14.9465905,29.051542 L15.1450902,28.8529795 C15.1450902,28.8529795 13.6457311,27.3540843 13.1461531,27.8535077 C12.649202,28.3509269 14.1302223,29.8367166 14.1458104,29.8523274 L12.9993435,30.9987499 L10,31 L10.0006253,28.0003344 L17.8993442,20.1023455 C16.7701979,17.7380982 17.1845712,14.8207729 19.1424641,12.862993 C21.6265983,10.3790023 25.6532341,10.3790023 28.1373683,12.862993 C30.6208772,15.3463586 30.6208772,19.3736237 28.1373683,21.8576143 C26.1789541,23.8154226 23.2618358,24.2297556 20.8976384,23.1006136 Z M25.1390878,15.8610959 C24.3112514,15.0335157 22.9688311,15.0335157 22.1409948,15.8610959 C21.3131585,16.6893012 21.3131585,18.0313062 22.1409948,18.8595114 C22.9688311,19.6870916 24.3112514,19.6870916 25.1390878,18.8595114 C25.9669241,18.0313062 25.9669241,16.6893012 25.1390878,15.8610959 Z" id="Combined-Shape" fill="#677383"></path>
                <rect id="Rectangle-594" x="0" y="1" width="40" height="40"></rect>
            </g>
        </g>
    </g>
</svg>