<?xml version="1.0" encoding="UTF-8"?>
<svg width="40px" height="40px" viewBox="0 0 40 40" version="1.1" xmlns="http://www.w3.org/2000/svg" xmlns:xlink="http://www.w3.org/1999/xlink">
    <!-- Generator: Sketch 47.1 (45422) - http://www.bohemiancoding.com/sketch -->
    <title>ic_denglu_mima</title>
    <desc>Created with Sketch.</desc>
    <defs></defs>
    <g id="Page-1" stroke="none" stroke-width="1" fill="none" fill-rule="evenodd">
        <g id="1.0-登录" transform="translate(-780.000000, -786.000000)" fill="#677383">
            <g id="密码" transform="translate(780.000000, 786.000000)">
                <path d="M26.9442178,18.0684663 L13.1485153,18.0684663 C12.0176902,18.0684663 11,19.0861564 11,20.2169816 L11,29.3764693 C11,30.620319 12.0176902,31.6380092 13.1485153,31.6380092 L26.8311933,31.6380092 C28.0750429,31.6380092 28.9797362,30.620319 28.9797362,29.4894939 L28.9797362,20.2169816 C29.0927331,19.0861564 28.0750429,18.0684663 26.9442178,18.0684663 Z M21.1772055,25.6448374 L21.1772055,27.114819 C21.1772055,27.7933528 20.7249141,28.2456442 20.0463804,28.2456442 C19.3679294,28.2456442 18.9155552,27.7933528 18.9155552,27.114819 L18.9155552,25.6448374 C18.2371319,25.3055706 17.7848405,24.5140123 17.7848405,23.722454 C17.7848405,22.4786319 18.8025307,21.4608313 20.0463804,21.4608313 C21.2902025,21.4608313 22.3080307,22.4786319 22.3080307,23.722454 C22.3080307,24.5140123 21.8556288,25.3055706 21.1772055,25.6448374 Z" id="Fill-1"></path>
                <path d="M16.6540153,18.0684663 L16.6540153,14.6761012 C16.6540153,12.7537178 18.1239969,11.2837362 20.0463804,11.2837362 C21.9687362,11.2837362 23.4387454,12.7537178 23.4387454,14.6761012 L23.4387454,18.0684663 L25.7003681,18.0684663 L25.7003681,14.6761012 C25.7003681,11.5098681 23.2125859,9.02208589 20.0463804,9.02208589 C16.8801472,9.02208589 14.392365,11.5098681 14.392365,14.6761012 L14.392365,18.0684663 L16.6540153,18.0684663 Z" id="Fill-4"></path>
            </g>
        </g>
    </g>
</svg>