<?xml version="1.0" encoding="UTF-8"?>
<svg width="40px" height="40px" viewBox="0 0 40 40" version="1.1" xmlns="http://www.w3.org/2000/svg" xmlns:xlink="http://www.w3.org/1999/xlink">
    <!-- Generator: Sketch 47.1 (45422) - http://www.bohemiancoding.com/sketch -->
    <title>ic_denglu_zhanghao</title>
    <desc>Created with Sketch.</desc>
    <defs></defs>
    <g id="Page-1" stroke="none" stroke-width="1" fill="none" fill-rule="evenodd">
        <g id="1.0-登录" transform="translate(-780.000000, -721.000000)">
            <g id="Page-1" transform="translate(780.000000, 719.000000)">
                <path d="M28.1224004,25.7587437 L28.1224004,25.7587437 C28.9492832,26.4437032 29.6077551,27.4315146 30,28.6003323 L30,31.6666667 L10,31.6666667 L10,28.4429453 C10.3868006,27.371954 10.9985189,26.4608491 11.7591159,25.8100813 C11.9689347,25.630241 12.1945241,25.4684436 12.4333271,25.326523 C14.9164783,23.6296079 16.9632628,22.6655408 19.9768038,22.6655408 C23.0185982,22.6655408 25.0906947,23.6470037 27.5904109,25.3737117 C27.7745611,25.488059 27.9517963,25.6174278 28.1224004,25.7587437 Z M13.8573242,15.8233184 L13.8573242,15.8233184 C13.8573242,12.6071885 16.548821,10 19.8689507,10 C23.1890803,10 25.8805771,12.6071885 25.8805771,15.8233184 C25.8805771,19.0394484 23.1890803,21.6466369 19.8689507,21.6466369 C16.548821,21.6466369 13.8573242,19.0394484 13.8573242,15.8233184 Z" id="Combined-Shape" fill="#677383" fill-rule="nonzero"></path>
                <rect id="Rectangle-594" x="0" y="0" width="40" height="40"></rect>
            </g>
        </g>
    </g>
</svg>