<?xml version="1.0" encoding="UTF-8"?>
<svg width="46px" height="46px" viewBox="0 0 46 46" version="1.1" xmlns="http://www.w3.org/2000/svg" xmlns:xlink="http://www.w3.org/1999/xlink">
    <!-- Generator: Sketch 47.1 (45422) - http://www.bohemiancoding.com/sketch -->
    <title>ic_huidaodingbu</title>
    <desc>Created with Sketch.</desc>
    <defs></defs>
    <g id="Page-1" stroke="none" stroke-width="1" fill="none" fill-rule="evenodd">
        <g id="3.3.1-审批管理-审批队列1-详情页" transform="translate(-1245.000000, -1720.000000)">
            <g id="Group-4" transform="translate(1245.000000, 1720.000000)">
                <circle id="Oval" fill="#677383" cx="23" cy="23" r="23"></circle>
                <path d="M24.795633,15.1592396 C24.808977,14.8281389 24.6742541,14.4946531 24.4007722,14.2651746 L24.4007722,14.2651746 L24.4007722,14.2651746 C24.1408294,14.0470567 23.8101185,13.9687111 23.5,14.0221448 C23.1898815,13.9687111 22.8591706,14.0470567 22.5992278,14.2651746 L22.5992278,14.2651746 L22.5992278,14.2651746 C22.3257459,14.4946531 22.191023,14.8281389 22.204367,15.1592396 L12.1227435,27.1740507 C11.7294547,27.642754 11.7905902,28.3415366 12.2592935,28.7348254 C12.7279969,29.1281142 13.4267795,29.0669786 13.8200683,28.5982753 L13.8200683,28.5982753 L23.5,17.0621819 L33.1799317,28.5982753 L33.1799317,28.5982753 C33.5732205,29.0669786 34.2720031,29.1281142 34.7407065,28.7348254 C35.2094098,28.3415366 35.2705453,27.642754 34.8772565,27.1740507 L24.795633,15.1592396 Z" id="Combined-Shape" fill="#FFFFFF"></path>
            </g>
        </g>
    </g>
</svg>