<?xml version="1.0" encoding="UTF-8"?>
<svg width="50px" height="50px" viewBox="0 0 50 50" version="1.1" xmlns="http://www.w3.org/2000/svg" xmlns:xlink="http://www.w3.org/1999/xlink">
    <!-- Generator: Sketch 47.1 (45422) - http://www.bohemiancoding.com/sketch -->
    <title>ic_shenqingzongshu</title>
    <desc>Created with Sketch.</desc>
    <defs></defs>
    <g id="Page-1" stroke="none" stroke-width="1" fill="none" fill-rule="evenodd">
        <g id="1.1-运营面板" transform="translate(-372.000000, -225.000000)" fill="#398BF7">
            <g id="申请" transform="translate(372.000000, 225.000000)">
                <path d="M49.9475327,19.2203488 C49.9770682,18.9821948 49.9475327,18.7443314 49.8285196,18.5061047 C49.679971,18.2083576 49.4123367,18 49.144775,17.9108285 L48.9664731,17.8213663 L42.4568215,14.5768895 L42.4568215,4.75363372 C42.4568215,2.16373547 40.4653846,0.0502180233 38.05791,0.0502180233 L11.9004354,0.0502180233 C9.46313498,0.0502180233 7.50123367,2.16373547 7.50123367,4.75363372 L7.50123367,14.547093 L0.991582003,17.8213663 L0.813280116,17.9108285 C0.515892598,18 0.278374456,18.2083576 0.129535559,18.5061047 C0.0107402032,18.7443314 -0.0190130624,18.9821948 0.0107402032,19.2203488 L0.0107402032,45.5347384 C0.0107402032,48.0056686 2.00217707,50 4.46923077,50 L45.4888244,50 C47.9558781,50 49.9475327,48.0056686 49.9475327,45.5347384 L49.9475327,19.2203488 Z M46.1130624,19.0417878 L42.4865747,20.8575581 L42.4865747,17.2260901 L46.1130624,19.0417878 Z M11.9004354,2.3125 L38.05791,2.3125 C39.2467344,2.3125 40.1978229,3.41395349 40.1978229,4.75363372 L40.1978229,21.9888081 L25.2465893,29.4603924 C25.0682874,29.549782 24.8899855,29.549782 24.7113933,29.4603924 L9.76023222,21.9888081 L9.76023222,4.75363372 C9.76023222,3.41395349 10.7115385,2.3125 11.9004354,2.3125 Z M7.50123367,20.8575581 L3.84499274,19.0417878 L7.47148041,17.2260901 L7.47148041,20.8575581 L7.50123367,20.8575581 Z M45.4888244,47.6184593 L4.46923077,47.6184593 C3.31008708,47.6184593 2.38853411,46.6958576 2.38853411,45.5347384 L2.38853411,20.9767442 L23.641582,31.6335029 C24.0577649,31.8418605 24.5033382,31.9608285 24.9790276,31.9608285 C25.454717,31.9608285 25.9005806,31.8418605 26.3167634,31.6632994 L47.569521,20.9767442 L47.569521,45.5347384 C47.569521,46.6958576 46.6479681,47.6184593 45.4888244,47.6184593 Z" id="Fill-1"></path>
                <path d="M30.9240203,17.9403343 L16.0618287,17.9403343 C15.4674165,17.9403343 14.9619739,18.4167151 14.9619739,19.0417878 C14.9619739,19.6669331 15.4375907,20.143314 16.0618287,20.143314 L30.9240203,20.143314 C31.5184325,20.143314 32.0235849,19.6669331 32.0235849,19.0417878 C32.0235849,18.4167151 31.5184325,17.9403343 30.9240203,17.9403343 Z M16.0618287,11.2426599 L33.8962264,11.2426599 C34.5203919,11.2426599 35.0258345,10.7367733 35.0258345,10.1117006 C35.0258345,9.48655523 34.5203919,8.98037791 33.8962264,8.98037791 L16.0618287,8.98037791 C15.4375907,8.98037791 14.9322206,9.48655523 14.9322206,10.1117006 C14.9322206,10.7367733 15.4375907,11.2426599 16.0618287,11.2426599 Z" id="Fill-3"></path>
            </g>
        </g>
    </g>
</svg>